<?xml version="1.0" standalone="no"?>
<!DOCTYPE svg PUBLIC "-//W3C//DTD SVG 20010904//EN"
 "http://www.w3.org/TR/2001/REC-SVG-20010904/DTD/svg10.dtd">
<svg version="1.0" xmlns="http://www.w3.org/2000/svg"
 width="128.000000pt" height="128.000000pt" viewBox="0 0 128.000000 128.000000"
 preserveAspectRatio="xMidYMid meet">
<metadata>
Created by potrace 1.11, written by Peter Selinger 2001-2013
</metadata>
<g transform="translate(0.000000,128.000000) scale(0.100000,-0.100000)"
fill="#000000" stroke="none">
<path d="M151 1094 c-20 -26 -21 -38 -21 -314 0 -276 1 -288 21 -314 l20 -26
343 0 c320 0 344 1 359 18 15 16 17 47 17 224 0 174 -2 207 -15 212 -20 7 -20
65 0 72 11 5 15 22 15 64 0 94 18 90 -378 90 l-341 0 -20 -26z"/>
<path d="M940 932 c0 -5 24 -18 53 -30 114 -48 180 -137 180 -247 0 -88 -29
-143 -120 -232 -42 -41 -67 -73 -59 -73 29 0 145 124 173 186 64 139 11 287
-130 367 -46 27 -97 42 -97 29z"/>
<path d="M950 420 l0 -80 -80 0 c-47 0 -80 -4 -80 -10 0 -6 33 -10 80 -10 l80
0 0 -80 c0 -47 4 -80 10 -80 6 0 10 33 10 80 l0 80 80 0 c47 0 80 4 80 10 0 6
-33 10 -80 10 l-80 0 0 80 c0 47 -4 80 -10 80 -6 0 -10 -33 -10 -80z"/>
</g>
</svg>
